<svg xmlns="http://www.w3.org/2000/svg" width="16" height="16" viewBox="0 0 16 16">
    <g fill="none" fill-rule="evenodd">
        <g fill="#9B9B9B">
            <g>
                <g>
                    <g>
                        <path d="M9.593 2.455l4.65 4.977c.361.387.36.987-.005 1.371l-4.645 4.901c-.38.401-1.013.418-1.414.038-.4-.38-.417-1.013-.038-1.414l3.093-3.264h-8.9c-.553 0-1-.447-1-1 0-.551.447-1 1-1h8.828l-3.03-3.243c-.378-.404-.356-1.037.047-1.414.404-.377 1.037-.355 1.414.048z" transform="translate(-15 -96) translate(9 76) translate(0 14) translate(6 6) rotate(-90 7.985 8.077)"/>
                    </g>
                </g>
            </g>
        </g>
    </g>
</svg>
