<svg xmlns="http://www.w3.org/2000/svg" width="1em" height="1em" viewBox="0 0 24 24">
    <g fill="currentColor" fill-rule="evenodd">
        <path fill-rule="nonzero" d="M18.658.198l-6.042.416 2.467 5.602 1.489-2.506c3.21 1.631 5.341 4.909 5.341 8.6 0 5.356-4.442 9.69-9.913 9.69-5.47 0-9.913-4.334-9.913-9.69 0-3.693 2.132-7.011 5.44-8.649.454-.224.925-.415 1.41-.568.547-.174.843-.74.662-1.264-.181-.524-.771-.808-1.318-.635-.589.187-1.16.418-1.711.69C2.571 3.864 0 7.865 0 12.311 0 18.763 5.368 24 12 24s12-5.237 12-11.69c0-4.422-2.544-8.357-6.396-10.34L18.658.199z"/>
        <text font-family="NotoSansCJKtc-Medium, Noto Sans CJK TC" font-size="12" font-weight="400">
            <tspan x="9" y="17">5</tspan>
        </text>
    </g>
</svg>
