<svg width="1em" height="1em" viewBox="0 0 16 16" xmlns="http://www.w3.org/2000/svg">
    <path d="M13 .667a1 1 0 0 1 1 1v9.666a.667.667 0 0 1-.568.66l-.099.007v1.993c-.04 0 .576.033.658.562l.009.121a.682.682 0 0 1-.682.657H4a2 2 0 0 1-2-2V2.667a2 2 0 0 1 2-2h9zM12 12H4.333a1 1 0 0 0-.116 1.993l.116.007H12v-2zm.667-10H3.333v8.667h9.334V2zm-2 4a.667.667 0 0 1 0 1.333H5.333a.667.667 0 1 1 0-1.333h5.334zm0-2.667a.667.667 0 0 1 0 1.334H5.333a.667.667 0 0 1 0-1.334h5.334z" fill="#9B9B9B" fill-rule="evenodd"/>
</svg>
