<svg xmlns="http://www.w3.org/2000/svg" width="1em" height="1em" viewBox="0 0 16 16">
    <g fill="none" fill-rule="evenodd">
        <g fill="currentColor">
            <g>
                <g>
                    <g>
                        <path d="M2.4 1.333h2.443c.588 0 1.067.48 1.067 1.067 0 .815.128 1.614.379 2.376.109.346.04.713-.176.99l-.088.099L4.929 7.32c.86 1.62 1.856 2.661 3.416 3.55l.3.165 1.495-1.13c.226-.232.683-.348 1.054-.221.757.25 1.557.377 2.371.377.55 0 1.003.417 1.06.951l.007.116v2.436c0 .588-.479 1.067-1.067 1.067C6.82 14.632 1.333 9.145 1.333 2.4c0-.549.417-1.002.951-1.06l.116-.007h2.443zm8.462.862c.26-.26.683-.26.943 0 .26.26.26.683 0 .943L10.94 4 14 4c.368 0 .667.298.667.667 0 .334-.247.611-.568.66L14 5.332h-3.057l.862.862c.234.235.257.6.07.86l-.07.083c-.26.26-.683.26-.943 0l-2-2.001c-.26-.26-.26-.683 0-.943z" transform="translate(-650 -496) translate(413 493) translate(96) translate(141 3)"/>
                    </g>
                </g>
            </g>
        </g>
    </g>
</svg>
