<svg xmlns="http://www.w3.org/2000/svg" width="1em" height="1em" viewBox="0 0 16 16">
    <path fill="currentColor" fill-rule="evenodd" d="M2.4 1.333h2.443c.588 0 1.067.48 1.067 1.067 0 .815.128 1.614.379 2.376.109.346.04.713-.176.99l-.088.099L4.929 7.32c.86 1.62 1.856 2.661 3.416 3.55l.3.165 1.495-1.13c.226-.232.683-.348 1.054-.221.757.25 1.557.377 2.371.377.55 0 1.003.417 1.06.951l.007.116v2.436c0 .588-.479 1.067-1.067 1.067C6.82 14.632 1.333 9.145 1.333 2.4c0-.549.417-1.002.951-1.06l.116-.007h2.443zm9.405.862l2 1.999c.26.26.26.682 0 .943l-2 2c-.26.261-.682.261-.943.001-.26-.26-.26-.682 0-.943l.86-.862H8.667c-.369 0-.667-.298-.667-.666 0-.335.247-.612.568-.66L8.667 4h3.057l-.862-.862c-.26-.26-.26-.682 0-.943.26-.26.682-.26.943 0z"/>
</svg>
