<svg xmlns="http://www.w3.org/2000/svg" width="16" height="16" viewBox="0 0 16 16">
    <g fill="none" fill-rule="evenodd">
        <g fill="#9B9B9B">
            <g>
                <g>
                    <g>
                        <path d="M13.5.667c1.013 0 1.833.818 1.833 1.827v9.013c0 1.01-.82 1.828-1.833 1.828h-2.4L8.01 16l-3.103-2.665H2.5c-1.013 0-1.833-.818-1.833-1.828V2.494c0-1.009.82-1.827 1.833-1.827h11zm0 1.827h-11v9.013h3.088l2.42 2.078 2.409-2.078H13.5V2.494zM9 8c.552 0 1 .448 1 1s-.448 1-1 1H5c-.552 0-1-.448-1-1s.448-1 1-1h4zm2-3.333c.552 0 1 .447 1 1 0 .552-.448 1-1 1H5c-.552 0-1-.448-1-1 0-.553.448-1 1-1h6z" transform="translate(-1151 -312) translate(370 276) translate(781 36)"/>
                    </g>
                </g>
            </g>
        </g>
    </g>
</svg>
