<svg xmlns="http://www.w3.org/2000/svg" width="1em" height="1em" viewBox="0 0 20 20">
    <g fill="none" fill-rule="evenodd">
        <g fill="currentColor">
            <g>
                <g>
                    <g>
                        <path d="M13.333 10.833c1.976 0 3.858 1.255 5.667 3.667.222.296.222.704 0 1-1.809 2.412-3.691 3.667-5.667 3.667-1.975 0-3.858-1.255-5.666-3.667-.223-.296-.223-.704 0-1 1.808-2.412 3.691-3.667 5.666-3.667zm0 1.667c-1.241 0-2.56.808-3.942 2.5 1.382 1.692 2.7 2.5 3.942 2.5s2.56-.808 3.943-2.5c-1.382-1.692-2.701-2.5-3.943-2.5zm0 .833c.92 0 1.667.747 1.667 1.667s-.746 1.667-1.667 1.667c-.92 0-1.666-.747-1.666-1.667s.746-1.667 1.666-1.667zM17.5 2.5c.872 0 1.588.67 1.66 1.523l.007.144V10c0 .46-.373.833-.834.833-.425 0-.775-.318-.827-.728L17.5 10V4.167h-15v10h2.502c.46 0 .833.373.833.833 0 .425-.318.775-.729.827l-.104.006H2.5c-.872 0-1.588-.67-1.66-1.523l-.007-.143v-10c0-.872.67-1.588 1.523-1.66L2.5 2.5h15zm-4.751 3.648c.328-.323.856-.318 1.178.01.323.328.319.856-.01 1.178l-2.465 2.425c-.263.258-.664.313-.986.135l-1.643-.905-1.58 1.596c-.325.326-.853.329-1.18.005-.326-.324-.329-.852-.005-1.179l2.024-2.042c.263-.265.668-.323.995-.143l1.65.91z" transform="translate(-932 -256) translate(40 99) translate(807 149) translate(85 8)"/>
                    </g>
                </g>
            </g>
        </g>
    </g>
</svg>
