<svg width="100" height="100" viewBox="0 0 100 100" xmlns="http://www.w3.org/2000/svg">
    <path d="M88.713 19.046A13.315 13.315 0 0 1 94.444 30v44.444c0 7.364-5.97 13.334-13.333 13.334H23.333a13.318 13.318 0 0 1-10.955-5.732 9.287 9.287 0 0 0 4.365 1.28l.368.007h63.556a9.333 9.333 0 0 0 9.33-9.063L90 74V23.778a9.29 9.29 0 0 0-1.287-4.732zm-7.602-5.713a5.556 5.556 0 0 1 5.556 5.556v55.555A5.556 5.556 0 0 1 81.11 80H10a5.556 5.556 0 0 1-5.556-5.556V18.89A5.556 5.556 0 0 1 10 13.333h71.111zM45.53 62.618c-1.071 0-1.995.378-2.74 1.122-.747.789-1.122 1.707-1.122 2.74 0 1.064.372 1.954 1.122 2.704.745.745 1.669 1.123 2.74 1.123 1.033 0 1.951-.376 2.729-1.113.76-.76 1.133-1.65 1.133-2.714 0-1.033-.376-1.951-1.112-2.729-.799-.758-1.717-1.133-2.75-1.133zm0-22.062c-2.43 0-3.756 1.27-3.756 3.613 0 .801.107 2.622.322 5.481.216 2.881.394 4.828.537 5.866.147 1.288.413 2.235.805 2.8.434.627 1.136.915 2.092.915.976 0 1.713-.297 2.109-.94.34-.509.604-1.449.788-2.775.143-1.038.32-2.985.537-5.866.214-2.86.321-4.68.321-5.481 0-2.343-1.325-3.613-3.755-3.613zm35.027-12.778h-70a1.667 1.667 0 1 0 0 3.333h70a1.667 1.667 0 0 0 0-3.333zm-68.89-10a2.778 2.778 0 1 0 0 5.555 2.778 2.778 0 0 0 0-5.555zm10 0a2.778 2.778 0 1 0 0 5.555 2.778 2.778 0 0 0 0-5.555zm10 0a2.778 2.778 0 1 0 0 5.555 2.778 2.778 0 0 0 0-5.555z" fill="#CDCDCD" fill-rule="evenodd"/>
</svg>
