<svg width="16" height="16" viewBox="0 0 16 16" xmlns="http://www.w3.org/2000/svg">
    <path d="M14 1.333c.368 0 .667.299.667.667v2.023a.667.667 0 0 1-1.334 0V2.667H2.667v10.666h10.666v-1.298a.667.667 0 0 1 1.334 0V14a.667.667 0 0 1-.667.667H2A.667.667 0 0 1 1.333 14V2c0-.368.299-.667.667-.667zM10.85 4.87a.667.667 0 0 1 .942-.004l2.678 2.661a.678.678 0 0 1 .125.172l.01.02a.663.663 0 0 1-.13.75l.051-.06a.67.67 0 0 1-.04.046l-.011.013-2.678 2.714a.667.667 0 1 1-.95-.937l1.558-1.579H6a.667.667 0 0 1-.66-.567L5.334 8c0-.368.299-.667.667-.667h6.382l-1.53-1.52a.667.667 0 0 1-.073-.86z" fill="#4C5B8F" fill-rule="evenodd"/>
</svg>
