<svg xmlns="http://www.w3.org/2000/svg" width="16" height="16" viewBox="0 0 16 16">
    <g fill="none" fill-rule="evenodd">
        <g fill="#4C5B8F">
            <g>
                <g>
                    <g>
                        <path d="M5.344.667c.368 0 .667.298.667.666 0 .369-.299.667-.667.667H2.667C2.298 2 2 2.298 2 2.667v10.666c0 .369.298.667.667.667h10.666c.369 0 .667-.298.667-.667v-2.64c0-.369.298-.667.667-.667.368 0 .666.298.666.666v2.641c0 1.105-.895 2-2 2H2.667c-1.105 0-2-.895-2-2V2.667c0-1.105.895-2 2-2zM8 2h4.667c.693 0 1.262.529 1.327 1.205l.006.128v4.67c0 .368-.298.667-.667.667-.334 0-.611-.247-.66-.569l-.006-.098V4.41l-5.535 5.4c-.263.257-.685.251-.943-.012-.257-.264-.251-.686.012-.943l5.662-5.523H8c-.335 0-.612-.246-.66-.568l-.007-.098c0-.335.247-.612.568-.66L8 2h4.667z" transform="translate(-1111 -361) translate(952 74) translate(159 287)"/>
                    </g>
                </g>
            </g>
        </g>
    </g>
</svg>
