<svg xmlns="http://www.w3.org/2000/svg" width="1em" height="1em" viewBox="0 0 20 20">
    <path fill="currentColor" fill-rule="evenodd" d="M12.107.833c.453 0 .887.185 1.201.512l1.865 1.94 1.864 1.945c.297.31.463.724.463 1.153V17.5c0 .92-.746 1.667-1.667 1.667H4.167c-.92 0-1.667-.747-1.667-1.667v-15c0-.92.746-1.667 1.667-1.667h7.94zM10.833 2.5L4.167 2.5v15h11.666v-10H12.5c-.92 0-1.667-.746-1.667-1.667V2.5zm2.812 5.968l.385.383c.182.18.182.463.002.641l-4.397 4.542c-.09.09-.19.134-.317.134s-.227-.044-.322-.139l-2.16-2.32-.047-.069c-.077-.084-.122-.203-.122-.307 0-.11.05-.237.136-.322l.385-.383c.179-.178.454-.178.634 0l.031.032 1.479 1.579 3.65-3.769c.023-.023.052-.04.084-.048.177-.13.417-.115.58.046zM12.5 2.908l.001 2.925h2.807l-1.336-1.392L12.5 2.908z"/>
</svg>
