<svg xmlns="http://www.w3.org/2000/svg" width="1em" height="1em" viewBox="0 0 20 20">
    <path fill="currentColor" fill-rule="evenodd" d="M12.107.833c.453 0 .887.185 1.201.512l1.865 1.94 1.864 1.945c.297.31.463.724.463 1.153V17.5c0 .92-.746 1.667-1.667 1.667H4.167c-.92 0-1.667-.747-1.667-1.667v-15c0-.92.746-1.667 1.667-1.667h7.94zM10.833 2.5L4.167 2.5v15h11.666v-10H12.5c-.92 0-1.667-.746-1.667-1.667V2.5zM10 7.5c.46 0 .833.373.833.833V10H12.5c.46 0 .833.373.833.833 0 .46-.373.834-.833.834l-1.667-.001v1.667c0 .46-.373.834-.833.834-.46 0-.833-.373-.833-.834v-1.667H7.5c-.46 0-.833-.372-.833-.833 0-.46.373-.833.833-.833h1.667V8.333c0-.46.373-.833.833-.833zm2.499-4.592l.001 2.925h2.807l-1.336-1.392L12.5 2.908z"/>
</svg>
