<svg width="20" height="20" viewBox="0 0 18 18" xmlns="http://www.w3.org/2000/svg">
    <path
        d="M16.5 1.667c.46 0 .833.373.833.833V5a.833.833 0 1 1-1.666 0V3.333H2.333v13.334h13.334V15a.833.833 0 1 1 1.666 0v2.5c0 .46-.373.833-.833.833h-15a.833.833 0 0 1-.833-.833v-15c0-.46.373-.833.833-.833zM12.866 5.24l4.187 4.15a.833.833 0 0 1 0 1.183l-4.186 4.166a.833.833 0 0 1-1.176-1.181l2.739-2.726H6.5a.833.833 0 0 1-.827-.728L5.667 10c0-.46.373-.833.833-.833l7.958-.001-2.765-2.74a.833.833 0 0 1 1.173-1.185z"
        fill="#585858" fill-rule="evenodd" />
</svg>
