<svg width="16" height="16" viewBox="0 0 16 16" xmlns="http://www.w3.org/2000/svg">
    <path d="M9.685.667c.363 0 .71.148.962.41l1.491 1.552 1.491 1.555c.238.248.371.579.371.923V14c0 .736-.597 1.333-1.333 1.333H3.333A1.333 1.333 0 0 1 2 14V2C2 1.264 2.597.667 3.333.667h6.352zM8.666 2H3.333v12h9.334l-.001-8H10a1.333 1.333 0 0 1-1.333-1.333L8.666 2zm2 8.667a.667.667 0 1 1 0 1.333H5.334a.667.667 0 1 1 0-1.333h5.334zm0-2.667a.667.667 0 0 1 0 1.333H5.334a.667.667 0 1 1 0-1.333h5.334zM10 2.327 10 4.667h2.245l-1.068-1.115-1.178-1.225z" fill="#585858" fill-rule="evenodd"/>
</svg>
