<?xml version="1.0" encoding="UTF-8"?>
<svg width="24px" height="24px" viewBox="0 0 24 24" version="1.1" xmlns="http://www.w3.org/2000/svg" xmlns:xlink="http://www.w3.org/1999/xlink">
    <title>1517798D-8DAD-4213-9E4E-588F1EFCB65E</title>
    <g id="21.0.0-會員卡＋後台" stroke="none" stroke-width="1" fill="none" fill-rule="evenodd">
        <g id="21.1.0-會員卡" transform="translate(-370.000000, -126.000000)" fill="#585858">
            <g id="discount" transform="translate(370.000000, 126.000000)">
                <path d="M20.0355286,0.999412115 C20.012115,1.16290084 20,1.33003561 20,1.5 C20,3.26325319 21.3038784,4.72196926 23.0000497,4.96456269 L23.0000497,20.0354373 C21.4671641,20.2546769 20.2546769,21.4671641 20.0354373,23.0000497 L3.96456269,23.0000497 C3.74535345,21.4673766 2.53317216,20.2550132 1.00058788,20.0355286 L1.00058788,4.96447143 C2.69644834,4.72160367 4,3.26303224 4,1.5 C4,1.33003561 3.98788499,1.16290084 3.96447143,0.999412115 L20.0355286,0.999412115 Z M16,13 C14.3431458,13 13,14.3431458 13,16 C13,17.6568542 14.3431458,19 16,19 C17.6568542,19 19,17.6568542 19,16 C19,14.3431458 17.6568542,13 16,13 Z M17.0539085,6.94609146 C16.6633842,6.55556717 16.0302193,6.55556717 15.639695,6.94609146 L15.639695,6.94609146 L7.00163345,15.584153 C6.61110916,15.9746773 6.61110916,16.6078423 7.00163345,16.9983665 C7.39215774,17.3888908 8.02532272,17.3888908 8.41584702,16.9983665 L8.41584702,16.9983665 L17.0539085,8.36030502 C17.4444328,7.96978073 17.4444328,7.33661575 17.0539085,6.94609146 Z M16,15 C16.5522847,15 17,15.4477153 17,16 C17,16.5522847 16.5522847,17 16,17 C15.4477153,17 15,16.5522847 15,16 C15,15.4477153 15.4477153,15 16,15 Z M8,5 C6.34314575,5 5,6.34314575 5,8 C5,9.65685425 6.34314575,11 8,11 C9.65685425,11 11,9.65685425 11,8 C11,6.34314575 9.65685425,5 8,5 Z M8,7 C8.55228475,7 9,7.44771525 9,8 C9,8.55228475 8.55228475,9 8,9 C7.44771525,9 7,8.55228475 7,8 C7,7.44771525 7.44771525,7 8,7 Z" id="Combined-Shape"></path>
            </g>
        </g>
    </g>
</svg>