<svg xmlns="http://www.w3.org/2000/svg" width="1em" height="1em" viewBox="0 0 20 20">
    <path fill="currentColor" fill-rule="evenodd" d="M16.667 6.667c.425 0 .775.318.827.728l.006.105v.817c0 4.84-2.684 7.935-6.666 8.311l-.001 1.705H12.5a.833.833 0 0 1 0 1.667h-5a.833.833 0 1 1 0-1.667h1.666v-1.702c-3.976-.343-6.56-3.182-6.663-8.014l-.003-.3v-.754a.833.833 0 0 1 1.66-.105l.007.105v.754C4.167 12.75 6.393 15 10 15c3.425 0 5.73-2.313 5.83-6.402l.003-.281V7.5c0-.46.373-.833.834-.833zM10 0a4.167 4.167 0 0 1 4.167 4.167v5a4.167 4.167 0 0 1-8.334 0v-5A4.167 4.167 0 0 1 10 0z"/>
</svg>
