<svg xmlns="http://www.w3.org/2000/svg" width="1em" height="1em" viewBox="0 0 20 20">
    <path fill="currentColor" fill-rule="evenodd" d="M10 0c5.523 0 10 4.477 10 10s-4.477 10-10 10S0 15.523 0 10 4.477 0 10 0zm.764 3.333h-1.06V4.74c-.832.083-1.49.36-1.976.831-.484.471-.727 1.077-.727 1.817 0 .802.243 1.424.727 1.867.485.442 1.23.83 2.236 1.163.534.202.905.41 1.114.628.21.216.314.505.314.864 0 .363-.11.65-.327.86-.218.211-.545.316-.981.316-.445 0-.806-.12-1.084-.358-.278-.239-.417-.639-.417-1.2H6.688l-.02.04c-.018.938.247 1.649.797 2.133s1.251.763 2.105.838v1.294h1.061V14.54c.836-.084 1.496-.354 1.978-.812.483-.458.724-1.068.724-1.83 0-.798-.244-1.425-.734-1.883-.489-.458-1.227-.845-2.215-1.16-.56-.232-.94-.45-1.138-.65-.198-.202-.297-.472-.297-.81 0-.363.094-.652.28-.867.188-.214.49-.322.908-.322.396 0 .704.128.924.385.22.256.33.623.33 1.1h1.902l.014-.032c.013-.81-.207-1.47-.66-1.975-.455-.506-1.082-.814-1.883-.924V3.333z"/>
</svg>
