<svg xmlns="http://www.w3.org/2000/svg" width="1em" height="1em" viewBox="0 0 20 20">
    <path fill="currentColor" fill-rule="evenodd" d="M10.614 1.478l.094.083 2.102 2.102c.292.292.298.763.014 1.062-.256.27-.667.307-.964.1l-.086-.068-.942-.882v5.291h5.408l-.84-.839c-.293-.292-.298-.765-.01-1.063.28-.29.743-.298 1.033-.018l.01.01 2.029 2.036c.39.391.388 1.024-.002 1.414l-2.057 2.053c-.274.274-.718.275-.993.002-.276-.275-.283-.72-.015-1.003l.874-.925h-5.437v5.431l.903-.84c.286-.266.732-.26 1.012.014.273.268.277.706.01.98-.003 0-.004.003-.006.004l-2.045 2.041c-.39.39-1.021.39-1.412.001l-2.017-2.008c-.294-.292-.297-.767-.007-1.063.263-.269.678-.298.973-.084l.085.072.838.822v-5.37h-5.3l.87.933c.282.302.273.774-.02 1.066-.265.263-.678.286-.968.07l-.084-.072-2.123-2.123-.084-.094c-.28-.36-.28-.866 0-1.226l.083-.094 2.068-2.068c.281-.28.72-.308 1.032-.08l.09.076c.282.28.31.718.082 1.027l-.076.089-.823.83h5.253V3.894l-.897.882-.002.002c-.306.296-.79.288-1.085-.015-.27-.28-.292-.71-.066-1.012l.075-.087L9.294 1.56l.094-.083c.36-.28.866-.28 1.226 0z"/>
</svg>
