<svg xmlns="http://www.w3.org/2000/svg" width="1em" height="1em" viewBox="0 0 24 24">
    <g fill="none" fill-rule="evenodd">
        <g fill="#585858">
            <g>
                <path d="M21 3c.552 0 1 .448 1 1v16c0 .552-.448 1-1 1H3c-.552 0-1-.448-1-1V4c0-.552.448-1 1-1h18zM11 7H6c-.513 0-.936.386-.993.883L5 8v8c0 .513.386.936.883.993L6 17h5c.513 0 .936-.386.993-.883L12 16V8c0-.552-.448-1-1-1zm7 8h-3c-.552 0-1 .448-1 1s.448 1 1 1h3c.552 0 1-.448 1-1s-.448-1-1-1zm0-4h-3c-.552 0-1 .448-1 1 0 .513.386.936.883.993L15 13h3c.552 0 1-.448 1-1s-.448-1-1-1zm0-4h-3c-.552 0-1 .448-1 1 0 .513.386.936.883.993L15 9h3c.552 0 1-.448 1-1s-.448-1-1-1z" transform="translate(-370.000000, -126.000000) translate(370.000000, 126.000000)"/>
            </g>
        </g>
    </g>
</svg>
