<svg xmlns="http://www.w3.org/2000/svg" width="1em" height="1em" viewBox="0 0 9 9"><path d="M8.91 3.5a.295.295 0 000-.426l-.453-.457a.307.307 0 00-.387-.035l-.957.648.649-.96a.313.313 0 00-.04-.387L6.735.895a.31.31 0 00-.347-.06l-.168.083.082-.18a.306.306 0 00-.063-.34L5.926.09a.295.295 0 00-.426 0L3.09 2.496 6.504 5.91zm0 0M2.64 2.945l-.695.7a.292.292 0 00-.09.214.29.29 0 00.09.211l.66.664c.13.125.188.301.168.48a.593.593 0 01-.27.438C.564 6.891.38 7.07.32 7.13a1.101 1.101 0 000 1.55c.43.426 1.121.426 1.551 0 .059-.058.238-.242 1.477-2.183a.593.593 0 01.437-.27c.18-.019.356.04.48.169l.665.66a.295.295 0 00.425 0l.7-.696zM1.419 8.191a.439.439 0 01-.61 0 .439.439 0 010-.609.431.431 0 01.61.61zm0 0"/></svg>