<svg xmlns="http://www.w3.org/2000/svg" width="1em" height="1em" viewBox="0 0 16 16">
    <path fill="currentColor" fill-rule="evenodd" d="M13.565 10.062c-.814 0-1.614-.127-2.371-.377-.371-.127-.828-.01-1.054.222l-1.496 1.129C6.91 10.11 5.842 9.042 4.93 7.32l1.096-1.456c.284-.284.386-.7.264-1.09-.251-.76-.38-1.56-.38-2.375 0-.588-.478-1.067-1.066-1.067H2.4c-.588 0-1.067.48-1.067 1.067 0 6.745 5.487 12.232 12.232 12.232.588 0 1.067-.479 1.067-1.067v-2.436c0-.588-.479-1.067-1.067-1.067z"/>
</svg>
