<svg xmlns="http://www.w3.org/2000/svg" width="1em" height="1em" viewBox="0 0 16 16">
    <g fill="none" fill-rule="evenodd">
        <g fill="currentColor">
            <g>
                <g>
                    <path d="M8 .667c.736 0 1.333.597 1.333 1.333v4.667H14c.736 0 1.333.597 1.333 1.333S14.736 9.333 14 9.333H9.333V14c0 .736-.597 1.333-1.333 1.333S6.667 14.736 6.667 14V9.333H2C1.264 9.333.667 8.736.667 8S1.264 6.667 2 6.667l4.667-.001V2c0-.736.597-1.333 1.333-1.333z" transform="translate(-62 -2022) translate(62 1449) translate(0 573)"/>
                </g>
            </g>
        </g>
    </g>
</svg>
