<svg xmlns="http://www.w3.org/2000/svg" width="20" height="20" viewBox="0 0 20 20">
    <g fill="none" fill-rule="evenodd">
        <g fill="#585858">
            <g>
                <g>
                    <g>
                        <g>
                            <path d="M17.424 12.78l.05.028c.595.33.81 1.079.48 1.673-.107.194-.264.355-.455.466l-6.878 4.019c-.384.224-.858.224-1.242 0l-6.878-4.019c-.587-.342-.785-1.096-.442-1.683.112-.191.273-.349.466-.456l.05-.028 6.804 3.973c.341.2.754.221 1.11.066l.132-.066 6.803-3.973zm-.228-3.987l.279.155c.594.33.81 1.078.48 1.673-.108.193-.265.355-.456.466l-6.878 4.018c-.384.224-.858.224-1.242 0l-6.878-4.018c-.587-.343-.785-1.097-.442-1.683.112-.191.273-.349.466-.456l.279-.155 6.575 3.841c.341.2.754.221 1.11.067l.132-.067 6.575-3.84zm-6.6-7.776l6.879 3.812c.594.33.81 1.079.48 1.673-.108.194-.265.355-.456.466l-6.878 4.019c-.384.224-.858.224-1.242 0L2.501 6.968c-.587-.343-.785-1.096-.442-1.683.112-.191.273-.349.466-.456l6.878-3.812c.372-.205.822-.205 1.194 0z" transform="translate(-28 -469) translate(0 65) translate(0 382) translate(28 22)"/>
                        </g>
                    </g>
                </g>
            </g>
        </g>
    </g>
</svg>
