<svg width="1em" height="1em" viewBox="0 0 20 21" xmlns="http://www.w3.org/2000/svg">
    <path d="M15 2.026c.92 0 1.667.746 1.667 1.666l.001 7.337a5 5 0 1 1-6.228 7.664H3.333c-.92 0-1.666-.747-1.666-1.667V3.692c0-.92.746-1.666 1.666-1.666H15zm-.833 10a3.333 3.333 0 1 0 0 6.666 3.333 3.333 0 0 0 0-6.666zm1.278 1.91a.378.378 0 0 1 .295.108l.18.175a.37.37 0 0 1 .112.295.435.435 0 0 1-.132.345l-1.958 1.95a.442.442 0 0 1-.314.126h-.024a.33.33 0 0 1-.215-.069.509.509 0 0 1-.084-.067l-.985-1.025h.002a.453.453 0 0 1-.121-.281l-.001-.023a.45.45 0 0 1 .137-.318l.171-.164a.452.452 0 0 1 .629 0l.02.02.48.495 1.443-1.437a.33.33 0 0 1 .103-.069.45.45 0 0 1 .262-.06zM8.333 12.86h-2.5a.833.833 0 0 0-.104 1.66l.104.007h2.5a.833.833 0 0 0 0-1.667zM12.5 9.526H5.833a.833.833 0 0 0-.104 1.66l.104.006H12.5a.833.833 0 1 0 0-1.666zm0-3.334H5.833a.833.833 0 0 0-.104 1.66l.104.007H12.5a.833.833 0 1 0 0-1.667z" fill="#585858" fill-rule="evenodd"/>
</svg>
