<svg xmlns="http://www.w3.org/2000/svg" width="1em" height="1em" viewBox="0 0 20 20">
    <path fill="currentColor" fill-rule="evenodd" d="M10 .833c2.457 0 4.53 1.782 4.93 4.167h1.627c.53 0 .967.413.998.941l.716 12.167c.032.551-.388 1.025-.94 1.057l-.029.001H2.73c-.552 0-1-.447-1-1l.002-.06.75-12.167C2.514 5.41 2.952 5 3.48 5h1.59l.031-.173C5.571 2.525 7.607.833 10 .833zM5.833 6.667c-.46 0-.833.373-.833.833 0 .46.373.833.833.833.46 0 .834-.373.834-.833 0-.46-.373-.833-.834-.833zm8.334 0c-.46 0-.834.373-.834.833 0 .46.373.833.834.833.46 0 .833-.373.833-.833 0-.46-.373-.833-.833-.833zM10 2.5C8.462 2.5 7.144 3.55 6.772 5h6.457C12.857 3.552 11.54 2.5 10 2.5z"/>
</svg>
