<svg xmlns="http://www.w3.org/2000/svg" width="1em" height="1em" viewBox="0 0 42 42">
    <path fill="currentColor" fill-rule="evenodd" d="M21.5 1C32.822 1 42 10.178 42 21.5S32.822 42 21.5 42 1 32.822 1 21.5 10.178 1 21.5 1zm0 1.708c-10.378 0-18.792 8.414-18.792 18.792 0 10.378 8.414 18.792 18.792 18.792 10.378 0 18.792-8.414 18.792-18.792 0-10.378-8.414-18.792-18.792-18.792zm5.833 11.959c.553 0 1 .447 1 1v11.666c0 .553-.447 1-1 1H15.667c-.553 0-1-.447-1-1V15.667c0-.553.447-1 1-1h11.666z"/>
</svg>
