<svg xmlns="http://www.w3.org/2000/svg" width="1em" height="1em" viewBox="0 0 16 16">
    <g fill="currentColor" fill-rule="evenodd">
        <path d="M10.667 10.667c.368 0 .666.298.666.666 0 .369-.298.667-.666.667H5.333c-.368 0-.666-.298-.666-.667 0-.368.298-.666.666-.666h5.334zm0-2.667c.368 0 .666.298.666.667 0 .368-.298.666-.666.666H5.333c-.368 0-.666-.298-.666-.666 0-.369.298-.667.666-.667h5.334z"/>
        <path d="M9.685.667c.363 0 .71.148.962.41l1.491 1.552 1.491 1.555c.238.248.371.579.371.923V14c0 .736-.597 1.333-1.333 1.333H3.333C2.597 15.333 2 14.736 2 14V2C2 1.264 2.597.667 3.333.667h6.352zM8.666 2H3.333v12h9.334l-.001-8H10c-.736 0-1.333-.597-1.333-1.333L8.666 2zm2.511 1.552L10 2.328v2.339l2.244-.001-1.067-1.114z"/>
    </g>
</svg>
