<svg xmlns="http://www.w3.org/2000/svg" width="1em" height="1em" viewBox="0 0 28 28">
    <path fill="currentColor" fill-rule="evenodd" d="M24.991 2.204c.441.399.506 1.058.174 1.533l-.092.115L21 8.35v11.199h4.667c.598 0 1.091.45 1.158 1.03l.008.137c0 .598-.45 1.091-1.03 1.159l-.136.007H21v4.716c0 .644-.522 1.167-1.167 1.167-.598 0-1.091-.45-1.158-1.03l-.008-.137v-4.716H7V10.117H2.333c-.598 0-1.091-.45-1.158-1.03l-.008-.136c0-.598.45-1.091 1.03-1.159l.136-.008H7V3.069c0-.645.522-1.167 1.167-1.167.598 0 1.091.45 1.158 1.03l.008.137v4.715h9.03l4.98-5.498c.433-.478 1.17-.515 1.648-.082zm-6.324 8.722l-7.806 8.622 7.806.001v-8.623zm-2.415-.809h-6.92v7.642l6.92-7.642z"/>
</svg>
