<svg xmlns="http://www.w3.org/2000/svg" width="1em" height="1em" viewBox="0 0 20 20">
    <path fill="currentColor" fill-rule="evenodd" d="M9.137 11.667c4.38.503 4.952 1.297 5.022 4.086.004.178.006.209.008.193v.217S13.123 17.5 7.082 17.5c-6.04 0-7.082-1.337-7.082-1.337v-.286c.001.012.004-.021.01-.215.08-2.715.687-3.498 5.019-3.995 0 0 .616.5 2.053.5 1.438 0 2.054-.5 2.054-.5zM16.45 10c3.091.36 3.495.927 3.544 2.918a.83.83 0 0 0 .006.139v.154s-.686.89-4.568.952c-.198-1.026-.633-1.93-1.265-2.5-.686-.616-1.585-.97-2.885-1.194.516-.208 1.245-.35 2.268-.469 0 0 .436.357 1.45.357S16.45 10 16.45 10zM7.083 2.5c3.2 0 3.75 1.865 3.75 4.167 0 2.3-1.679 4.166-3.75 4.166-2.07 0-3.75-1.865-3.75-4.166 0-2.302.552-4.167 3.75-4.167zM15 3.333c2.133 0 2.5 1.306 2.5 2.917 0 1.61-1.12 2.917-2.5 2.917S12.5 7.86 12.5 6.25c0-1.61.368-2.917 2.5-2.917z"/>
</svg>
