<svg xmlns="http://www.w3.org/2000/svg" width="1em" height="1em" viewBox="0 0 20 20">
    <g fill="none" fill-rule="evenodd">
        <g fill="currentColor">
            <g>
                <g>
                    <g>
                        <g>
                            <g>
                                <path d="M13.167 2.417c1.104 0 2 .895 2 2v10.166c0 1.105-.896 2-2 2H5.833c-1.104 0-2-.895-2-2V4.417c0-1.105.896-2 2-2h7.334zm-.834 9.916H6.667c-.392 0-.709.317-.709.709 0 .39.317.708.709.708h5.666c.392 0 .709-.317.709-.708 0-.392-.317-.709-.709-.709zm0-3.541H6.667c-.392 0-.709.317-.709.708 0 .359.267.655.613.702l.096.006h5.666c.392 0 .709-.317.709-.708 0-.391-.317-.708-.709-.708zm0-3.542H6.667c-.392 0-.709.317-.709.708 0 .359.267.655.613.702l.096.007h5.666c.392 0 .709-.317.709-.709 0-.39-.317-.708-.709-.708z" transform="translate(-28 -647) translate(0 -95) translate(0 720) translate(28 22) translate(1 1)"/>
                            </g>
                        </g>
                    </g>
                </g>
            </g>
        </g>
    </g>
</svg>
