<svg width="24" height="24" viewBox="0 0 24 24" xmlns="http://www.w3.org/2000/svg">
    <path d="M18 2a2 2 0 0 1 2 2l.001 8.803a6 6 0 1 1-7.472 9.198L4 22a2 2 0 0 1-2-2V4a2 2 0 0 1 2-2h14zm-1 12a4 4 0 1 0 0 8 4 4 0 0 0 0-8zm1.534 2.293c.129-.011.258.035.354.129l.215.21a.445.445 0 0 1 .136.354.521.521 0 0 1-.159.413l-2.35 2.34a.53.53 0 0 1-.376.152h-.03a.397.397 0 0 1-.258-.082.61.61 0 0 1-.1-.08l-1.183-1.23.004-.002a.544.544 0 0 1-.146-.337l-.001-.026a.54.54 0 0 1 .165-.383l.205-.196a.542.542 0 0 1 .754 0l.024.023.577.594 1.731-1.723a.395.395 0 0 1 .123-.083.542.542 0 0 1 .233-.073h.082zM10 15H7a1 1 0 0 0-.117 1.993L7 17h3a1 1 0 0 0 0-2zm5-4H7a1 1 0 0 0-.117 1.993L7 13h8a1 1 0 0 0 0-2zm0-4H7a1 1 0 0 0-.117 1.993L7 9h8a1 1 0 0 0 0-2z" fill="#585858" fill-rule="evenodd"/>
</svg>
