<svg xmlns="http://www.w3.org/2000/svg" width="1em" height="1em" viewBox="0 0 16 16">
    <g fill="none" fill-rule="evenodd">
        <g fill="#9B9B9B">
            <g>
                <g>
                    <g>
                        <path d="M10.667 3.333c.368 0 .666.299.666.667v1.5l3.1-1.162c.344-.13.729.045.858.39.028.075.042.154.042.234v6.076c0 .368-.298.667-.666.667-.08 0-.16-.015-.234-.043l-3.1-1.163V12c0 .368-.298.667-.666.667H1.333c-.368 0-.666-.299-.666-.667V4c0-.368.298-.667.666-.667h9.334zM10 4.667H2v6.666h8V4.667zm4 1.257l-2.667 1v2.152l2.667 1V5.924z" transform="translate(-306 -346) translate(250 244) translate(40 84) translate(16 18)"/>
                    </g>
                </g>
            </g>
        </g>
    </g>
</svg>
