<svg xmlns="http://www.w3.org/2000/svg" width="76" height="75" viewBox="0 0 76 75">
    <g fill="none" fill-rule="evenodd" stroke="#4C5B8F" stroke-linecap="round" stroke-linejoin="round" stroke-width="4">
        <path d="M13.415 19.122C13.415 9.666 21.08 2 30.537 2c9.456 0 17.122 7.666 17.122 17.122s-7.666 17.122-17.122 17.122c-9.457 0-17.122-7.666-17.122-17.122z"/>
        <path d="M2.007 65.22s-.597-11.807 8.96-20.957c9.556-9.15 17.62-7.97 20.009-7.97M50.293 53.805a5.268 5.268 0 1 1 10.536 0 5.268 5.268 0 0 1-10.536 0z"/>
        <path d="M73.307 59.56c-1.445-1.381-3.876-4.02-3.83-6.105.039-1.855 2.784-4.137 4.523-5.399a18.132 18.132 0 0 0-3.218-5.69c-1.822.561-5.817 1.58-7.879.49-1.918-1.013-2.736-5.165-3.012-7.033a20.574 20.574 0 0 0-8.563-.014c-.274 1.861-1.091 6.031-3.014 7.048-2.079 1.098-6.12.054-7.923-.504a18.117 18.117 0 0 0-3.269 5.82c1.742 1.282 4.325 3.483 4.364 5.282.048 2.275-2.848 5.208-4.2 6.449a18.167 18.167 0 0 0 3.119 5.37c1.808-.56 5.836-1.596 7.909-.5 1.915 1.012 2.733 5.151 3.01 7.024 1.37.292 2.794.446 4.257.446 1.483 0 2.927-.159 4.313-.458.28-1.878 1.098-6.002 3.01-7.012 2.056-1.088 6.035-.076 7.864.486a18.172 18.172 0 0 0 3.056-5.219c-.15-.135-.325-.297-.517-.481z"/>
    </g>
</svg>
