<svg xmlns="http://www.w3.org/2000/svg" width="76" height="76" viewBox="0 0 76 76">
    <g fill="none" fill-rule="evenodd" stroke="#21B1B1" stroke-linecap="round" stroke-linejoin="round" stroke-width="4">
        <path d="M14 20c0-9.941 8.059-18 18-18s18 8.059 18 18-8.059 18-18 18-18-8.059-18-18zM2.008 68.462S1.38 56.05 11.426 46.43c10.047-9.619 18.524-8.378 21.036-8.378M71.23 58.378v11.93A3.692 3.692 0 0 1 67.539 74H45.385a3.692 3.692 0 0 1-3.693-3.692V48.154a3.692 3.692 0 0 1 3.693-3.692h10.193"/>
        <path d="M68.279 39.846L51.933 59.46l-1.01 6.233 6.693-1.33L74 44.298z"/>
    </g>
</svg>
