<svg xmlns="http://www.w3.org/2000/svg" width="64" height="64" viewBox="0 0 64 64">
    <g fill="none" fill-rule="evenodd">
        <circle cx="32" cy="32" r="32" fill="#FFF7E5"/>
        <path fill="#FFBE1E" d="M29.333 17.333c6.628 0 12 5.373 12 12 0 2.348-.674 4.539-1.84 6.389l6.37 6.37c.585.585.585 1.535 0 2.12l-1.65 1.65c-.586.586-1.536.586-2.122 0l-6.37-6.369c-1.849 1.166-4.04 1.84-6.388 1.84-6.627 0-12-5.372-12-12 0-6.627 5.373-12 12-12zm0 4c-4.418 0-8 3.582-8 8 0 4.419 3.582 8 8 8 4.419 0 8-3.581 8-8 0-4.418-3.581-8-8-8z"/>
    </g>
</svg>
