<svg width="170" height="96" viewBox="0 0 170 96" xmlns="http://www.w3.org/2000/svg">
    <g fill="none" fill-rule="evenodd">
        <rect fill="#585858" width="170" height="96" rx="4"/>
        <path d="M91.667 36.333c.92 0 1.666.747 1.666 1.667v3.75l7.748-2.906a1.667 1.667 0 0 1 2.252 1.561v15.19a1.667 1.667 0 0 1-2.252 1.56l-7.748-2.905V58c0 .92-.746 1.667-1.666 1.667H68.333c-.92 0-1.666-.747-1.666-1.667V38c0-.92.746-1.667 1.666-1.667h23.334zM90 39.667H70v16.666h20V39.667zm10 3.143-6.667 2.5v5.38l6.667 2.5V42.81z" fill="#FFF"/>
    </g>
</svg>
